<svg xmlns="http://www.w3.org/2000/svg" id="Layer_1" enable-background="new 0 0 48 48" viewBox="0 0 48 48"><path fill="#ffbea0" d="M10.5,22.4v8.1c0,4.1,1.8,7.7,4.6,10.2l17.7,0c2.8-2.5,4.6-6.1,4.6-10.2v-7.6L24,11.3L10.5,22.4z"/><ellipse cx="24" cy="38.8" fill="#8ccda5" rx="10.3" ry="9.1"/><path fill="#ad9dc4" d="M6.6,18.9v4.8c1.4-0.5,2.8-1,4-1.6c5.6-2.7,8.7-6.1,8.7-6.1c5.9,4.5,12.8,6.1,18.2,6.7
				c1.5,0.2,2.8,0.2,4,0.3v-4.1c0-4.8-2-9.2-5.1-12.3C33.2,3.5,28.8,1.5,24,1.5C14.4,1.5,6.6,9.3,6.6,18.9z"/><path fill="#ad9dc4" d="M37.4 22.8v7.7c2.2 0 4-1.8 4-4v-3.5C40.2 23 38.9 23 37.4 22.8zM6.6 23.8v2.8c0 2.2 1.8 4 4 4v-8.4h0C9.3 22.8 8 23.3 6.6 23.8z"/><path d="M27.9 27.7c.1 0 .1 0 .2 0l3.5-1c.4-.1.6-.5.5-.9-.1-.4-.5-.6-.9-.5l-3.5 1c-.4.1-.6.5-.5.9C27.3 27.5 27.6 27.7 27.9 27.7zM16.3 26.6l3.5 1c.1 0 .1 0 .2 0 .3 0 .6-.2.7-.5.1-.4-.1-.8-.5-.9l-3.5-1c-.4-.1-.8.1-.9.5C15.7 26.1 15.9 26.5 16.3 26.6z"/><path d="M14.7,44.1c2.6,2.1,5.9,3.1,9.3,3.1c3.4,0,6.7-1,9.3-3.1l0.3-0.2V41c2.8-2.5,4.4-6,4.6-9.8c2.3-0.3,4.1-2.3,4.1-4.7v-2.7
		v-1.5v-3.4c0-4.9-1.9-9.4-5.3-12.9c-3.4-3.4-8-5.3-12.9-5.3C14,0.8,5.8,8.9,5.8,18.9v4.3v1.6v1.7c0,2.4,1.8,4.3,4.1,4.7
		c0.2,3.7,1.8,7.2,4.6,9.8v2.9L14.7,44.1z M11.8,22.4c0.3-0.2,0.6-0.3,0.9-0.5c0.2-0.1,0.4-0.2,0.5-0.3c0.3-0.2,0.6-0.3,0.9-0.5
		c0.1-0.1,0.3-0.2,0.4-0.3c0.3-0.2,0.6-0.4,0.9-0.6c0.1-0.1,0.2-0.1,0.3-0.2c0.3-0.2,0.6-0.4,0.9-0.6c0,0,0,0,0.1-0.1
		c1.3-1,2.2-1.8,2.7-2.3c0.6,0.4,1.2,0.9,1.9,1.3c0.1,0,0.2,0.1,0.2,0.1c0.6,0.3,1.1,0.7,1.7,1c0.2,0.1,0.4,0.2,0.6,0.3
		c0.5,0.2,1,0.5,1.5,0.7c0.2,0.1,0.5,0.2,0.8,0.3c0.5,0.2,0.9,0.4,1.4,0.6c0.3,0.1,0.6,0.2,0.9,0.3c0.5,0.2,0.9,0.3,1.4,0.4
		c0.3,0.1,0.7,0.2,1,0.3c0.5,0.1,0.9,0.2,1.4,0.3c0.4,0.1,0.7,0.1,1.1,0.2c0.5,0.1,0.9,0.2,1.4,0.3c0.4,0.1,0.8,0.1,1.1,0.2
		c0.2,0,0.5,0.1,0.7,0.1l-3.9,9.5c-4.9-3.4-12-3.4-16.9,0l-4-10.4C11.6,22.5,11.7,22.4,11.8,22.4z M32,43.2
		c-4.5,3.5-11.6,3.5-16.1,0v-8.7c4.5-3.5,11.6-3.5,16.1,0V43.2z M33.5,38.8v-4.6l3.1-7.6v3.9C36.7,33.6,35.5,36.6,33.5,38.8z
		 M40.7,26.5c0,1.5-1.1,2.8-2.5,3.2v-6.1c0.2,0,0.3,0,0.5,0c0.5,0,1,0.1,1.6,0.1c0.2,0,0.3,0,0.5,0V26.5z M24,2.3
		c4.4,0,8.6,1.7,11.8,4.9c3.1,3.1,4.9,7.3,4.9,11.8v3.4c-0.3,0-0.6,0-0.8,0c-0.2,0-0.4,0-0.6,0c-0.6,0-1.2-0.1-1.8-0.2l0,0
		c-7-0.8-13-3-17.8-6.6l-0.5-0.4l0,0l0,0l-0.5,0.5c0,0-3,3.3-8.4,5.9l-0.1,0.1c-0.5,0.3-1.1,0.5-1.7,0.7c-0.2,0.1-0.3,0.1-0.5,0.2
		c-0.2,0.1-0.4,0.2-0.7,0.2v-3.8C7.3,9.7,14.8,2.3,24,2.3z M7.3,26.5v-2.2c0.2-0.1,0.4-0.1,0.5-0.2c0.5-0.2,1.1-0.4,1.6-0.6
		c0.1-0.1,0.3-0.1,0.4-0.2v6.4C8.4,29.4,7.3,28.1,7.3,26.5z M11.3,30.6v-4.4l3.1,8.1v4.6C12.5,36.6,11.3,33.6,11.3,30.6z"/></svg>